<svg width="128" height="43" viewBox="0 0 128 43" fill="none" xmlns="http://www.w3.org/2000/svg">
<g clip-path="url(#clip0_1338_347)">
<path d="M0 27.3994C0 27.3994 1.53194 27.7351 3.3284 27.4442C8.21078 26.6384 11.5722 22.7103 11.5722 17.8644C11.5722 13.0186 8.19976 9.05692 3.3284 8.27354C1.60909 7.99375 0 8.3183 0 8.3183V27.4106L0 27.3994ZM3.60393 12.0674C6.28207 12.8843 7.99036 15.1114 7.99036 17.8533C7.99036 20.5951 6.28207 22.811 3.60393 23.6167V12.0562V12.0674Z" fill="#B60005"/>
<path d="M20.1467 8.3071V42.8321C20.1467 42.8321 21.4913 43.1791 23.4531 42.8769C25.6904 42.5412 27.7183 41.3549 29.1951 39.6202C30.694 37.8632 31.5096 35.6138 31.5096 33.286C31.5096 30.242 30.0989 27.3994 27.7403 25.5528C30.0989 23.7175 31.5096 20.8749 31.5096 17.8421C31.5096 15.5143 30.694 13.2648 29.1951 11.5078C27.7183 9.76196 25.6794 8.62046 23.4531 8.25115C21.5795 7.93779 20.1467 8.29591 20.1467 8.29591M23.7507 27.5113C26.2084 28.3059 27.9167 30.6225 27.9167 33.286C27.9167 35.9495 26.2194 38.2661 23.7507 39.0607V27.5113ZM23.7507 12.0674C26.2084 12.8508 27.9167 15.1673 27.9167 17.8532C27.9167 20.5391 26.2194 22.8222 23.7507 23.6167V12.0562V12.0674Z" fill="#B60005"/>
<path d="M13.5121 10.4558V27.5785H17.105V10.4558L27.3988 -0.00799561H22.318L15.3085 7.10964L8.31008 -0.00799561H3.20728L13.5121 10.4558Z" fill="#B60005"/>
<path d="M108.5 9.61128L104.39 8.86147L104.048 9.712L105.635 10.8087V21.0935H96.6968V22.761H105.635V27.6852H107.531C108.071 27.6852 108.489 27.2487 108.489 26.6891V15.4531H111.212V13.7968H108.489V9.61128H108.5Z" fill="#727171"/>
<path d="M116.877 21.3285H118.75C119.301 21.3285 119.731 20.8921 119.731 20.3325V18.5867H124.151V16.9192H122.079C122.795 16.1246 123.181 15.1398 123.181 14.1102C123.181 11.6481 120.988 9.65604 118.287 9.65604C115.587 9.65604 113.394 11.6593 113.394 14.1102C113.394 15.1509 113.78 16.1358 114.485 16.9192H112.457V18.5867H116.888V21.3285H116.877ZM116.227 14.1102C116.227 12.5546 117.141 11.29 118.265 11.29C119.39 11.29 120.304 12.5546 120.304 14.1102C120.304 15.6657 119.401 16.8968 118.287 16.9192H118.232C117.119 16.8968 116.216 15.6434 116.216 14.1102H116.227Z" fill="#727171"/>
<path d="M123.974 8.86147L123.644 9.712L125.253 10.8087V19.6498H121.781V21.3285H125.253V26.0177H118.86V21.944L115.245 21.3845L114.992 22.0672L116.006 22.817V25.6148C116.006 26.7563 116.921 27.6852 118.045 27.6852H128.085V9.61128L123.963 8.86147H123.974Z" fill="#727171"/>
<path d="M103.519 15.6098C103.519 14.625 103.177 13.6961 102.516 12.9127H104.875V11.2452H100.433V8.99576L96.4543 8.52573L96.1457 9.3315L97.1928 9.98059V11.234H92.7512V12.9015H95.1208C94.4595 13.6737 94.1178 14.5914 94.1178 15.5986C94.1178 18.0159 96.2229 19.9744 98.8129 19.9744C101.403 19.9744 103.497 18.0159 103.497 15.5986L103.519 15.6098ZM98.6586 12.9127H98.9782C100.036 13.0246 100.863 14.2109 100.863 15.6098C100.863 17.1094 99.9481 18.3293 98.8239 18.3293C97.6997 18.3293 96.774 17.1094 96.774 15.6098C96.774 14.2109 97.6116 13.0358 98.6586 12.9127Z" fill="#727171"/>
<path d="M67.7663 8.86147L67.4356 9.712L69.0117 10.8087V14.1997H65.5731V15.856H69.0117V25.9281H62.8508V21.8545L59.2689 21.3285L58.9934 21.9888L60.0074 22.7498L60.0294 25.5252C60.0294 26.6556 60.9331 27.5844 62.0573 27.5844H71.8772V9.61128L67.8985 8.88385L67.7663 8.86147Z" fill="#727171"/>
<path d="M61.6937 17.0087C62.5203 17.9152 64.0963 19.3812 66.0911 20.0191L66.2234 20.0639L67.3476 17.7137L67.1492 17.669C67.1492 17.669 64.3608 17.0199 62.6636 15.7105C63.4461 14.4683 64.1514 12.9127 64.1624 10.2044V10.0477L59.8421 9.56651L59.5446 10.3947L60.5916 11.0326C60.6357 11.3347 60.7569 12.521 60.3822 13.9423C59.7981 16.1358 58.3653 17.8145 56.106 18.9336L55.9517 19.0119L56.635 20.1982L56.7562 20.1646C56.8774 20.1311 59.6107 19.3924 61.6937 17.0087Z" fill="#727171"/>
<path d="M48.7988 9.7008L50.3859 10.7975V21.3397C49.912 21.6195 49.3058 21.7314 48.7217 21.8433C47.9723 21.9664 46.2419 21.9552 45.4925 21.9328V19.1462V19.0007L42.1531 18.4971C42.7813 18.0719 43.4205 17.5459 43.9936 16.8968C44.8092 17.7809 46.3742 19.2022 48.3911 19.8401L48.5233 19.8848L49.5373 17.7137L49.3389 17.669C49.3389 17.669 46.5615 17.0199 44.8643 15.7105C45.1949 15.1509 45.4484 14.5578 45.6468 13.9423H48.7327V12.286H45.9774C46.0435 11.5921 46.0435 10.6297 46.0105 10.182V10.0477L42.0318 9.5777L41.7343 10.4059L42.7923 11.0438C42.8143 11.2116 42.8694 11.6705 42.8364 12.286H39.3757V13.9423H42.5719C42.1751 15.4867 41.095 17.5459 38.2957 18.9448L38.1414 19.0231L38.7365 20.0975L38.8577 20.0639C38.9459 20.0415 40.2905 19.6834 41.8004 18.7321L41.6351 19.1462L42.649 19.9072V21.944H38.3838V23.6003H46.3301C47.3771 23.6003 48.2478 23.522 48.9201 23.3765C49.4822 23.2646 49.9671 23.0855 50.3749 22.8505V27.6963H52.2595C52.7885 27.6963 53.2183 27.2487 53.2183 26.7115V9.62246L49.1074 8.87265L48.7768 9.72319L48.7988 9.7008Z" fill="#727171"/>
<path d="M85.5875 9.712L87.1965 10.8087V15.6993H85.4883C85.1246 12.6217 82.9313 10.3275 80.3304 10.3275C77.4759 10.3275 75.1504 13.1253 75.1504 16.5499C75.1504 19.9744 77.4759 22.7722 80.3304 22.7722C82.9644 22.7722 85.1576 20.4556 85.4883 17.3556H87.1965V27.6852H89.0701C89.6102 27.6852 90.04 27.2487 90.04 26.7003V9.61128L85.9181 8.86147L85.5985 9.712H85.5875ZM82.6779 16.5499C82.6779 19.0567 81.6198 21.1047 80.3193 21.1047C79.0188 21.1047 77.9939 19.0567 77.9939 16.5499C77.9939 14.043 79.0629 11.9838 80.3193 11.9838C81.5757 11.9838 82.6779 14.0318 82.6779 16.5499Z" fill="#727171"/>
</g>
<defs>
<clipPath id="clip0_1338_347">
<rect width="128" height="43.008" fill="white" transform="translate(0 -0.00799561)"/>
</clipPath>
</defs>
</svg>
