<svg width="112" height="20" viewBox="0 0 112 20" fill="none" xmlns="http://www.w3.org/2000/svg">
<g clip-path="url(#clip0_216_2407)">
<path d="M40.5231 0.650427C40.2925 1.16124 40.9576 1.09313 40.727 1.61756C40.1789 2.21011 39.6775 2.51319 38.8185 2.37697C38.5177 1.92065 38.2937 1.35535 38.4809 0.786643C38.9956 0.524426 38.9622 -0.136224 39.6407 0.0238306C39.975 0.129398 40.2658 0.354156 40.5198 0.650427H40.5231Z" fill="#ED1B23"/>
<path d="M20.3451 0.817285V1.10675L21.1406 2.12837C21.0103 2.53021 21.5918 2.7754 21.8124 3.10572C21.896 3.62335 22.511 3.92302 22.7717 4.36573C23.3332 5.09789 23.6374 6.06503 24.4496 6.54179C25.1615 6.552 25.3253 5.61551 26.0272 5.62232C26.5051 5.18984 27.1803 4.82546 27.548 4.24994C27.7017 4.05924 28.0259 4.11713 28.2198 4.19205C28.3802 5.15919 29.6971 5.23751 29.7974 6.24892C30.2386 6.552 30.6898 7.01173 31.0876 7.33865C31.4485 6.98108 31.5388 7.81201 31.8697 7.50892C32.1538 6.9266 32.8323 7.3046 33.1598 6.82444C33.4306 6.84146 33.9286 7.01514 33.8985 6.54179C33.952 6.552 33.9821 6.51454 34.0088 6.4873C34.7842 7.10027 35.0015 7.9346 35.2455 8.76893C35.9908 9.07201 35.6399 9.90634 35.807 10.3729C35.9374 10.9177 36.2616 11.3775 36.3719 11.9223C36.2315 12.1471 35.9908 11.9598 35.807 11.9768C35.7535 11.9326 35.7234 11.8372 35.6432 11.8679C35.4561 11.9598 35.5129 12.2322 35.5797 12.3855C35.6265 12.4808 35.7535 12.5523 35.6432 12.6681C35.3591 12.3378 35.1653 12.9406 34.8511 12.8929C34.7575 12.8554 34.811 12.6954 34.6806 12.726L34.6271 12.7805C34.4868 12.5626 34.4366 12.2527 34.4634 12.0415L34.1224 11.8134L34.1793 11.7487C33.9553 11.6363 34.1492 11.3366 34.0121 11.1868C33.7448 11.0097 33.484 10.9518 33.3938 10.6147C33.3403 10.5942 33.3102 10.6419 33.2835 10.6691C33.2568 10.5397 33.1799 10.2401 32.9994 10.4376C32.1738 11.0097 31.6357 11.9292 30.6932 12.2118C30.5895 12.1743 30.6564 12.0143 30.526 12.0449L30.4726 12.0994C30.3322 11.7521 29.7707 12.314 29.7439 11.8168L29.5701 11.6397L29.6236 11.5852L29.4598 11.4728L29.5133 11.4149C29.1623 11.2549 29.2158 10.7304 28.8983 10.6181C28.6844 10.2162 29.0922 10.1107 28.7847 9.75309C28.6008 9.71223 28.544 9.96763 28.3902 9.98466C28.28 9.86207 28.2799 9.61347 28.0594 9.64071L28.1162 9.58282L27.7719 8.95623L27.7184 9.01412C27.6917 8.77914 27.4544 8.85406 27.324 8.77914C26.1408 9.47725 25.3854 11.0335 24.2891 11.6431C23.8245 12.1028 23.1928 12.6954 22.6581 12.4536C22.3506 12.3582 22.0431 12.1777 21.7623 11.9904C21.7723 11.5341 21.301 11.592 21.3111 11.1289C21.0905 10.8564 20.793 10.4989 20.6961 10.1617C20.2883 9.7599 20.1345 9.3172 19.9139 8.78255C19.6466 8.78255 19.7368 8.38752 19.5162 8.33303C19.4059 7.98228 18.9547 7.8733 18.6773 7.98228C16.8857 9.20482 15.8095 10.9075 14.1249 12.1062C13.7172 12.1369 13.4331 12.6477 13.0554 12.5626C12.9985 12.7907 12.7445 12.9985 12.5507 12.9031C12.3368 12.8214 12.2164 12.6307 12.2699 12.4536C12.6309 12.2186 12.4671 11.8883 12.7779 11.5886C12.7144 11.1936 12.417 10.7611 12.4404 10.2707C12.1863 10.3184 12.2265 9.9438 11.9858 9.98807C12.0593 9.48407 12.7913 9.26612 12.4404 8.72466C12.1228 8.77233 11.8554 8.9392 11.5346 8.95623C11.5346 8.69401 11.2939 8.39093 11.4811 8.21725C11.558 7.72687 11.1502 7.53617 11.0934 7.182C11.3407 7.03898 11.0466 6.76654 11.1502 6.60649C11.334 6.15016 11.9524 5.84027 12.2198 5.46227C13.6737 4.57005 15.0641 3.25556 16.3209 2.08069C17.4306 1.22934 18.7642 0.194094 20.1947 0.541446L20.3585 0.824096L20.3451 0.817285Z" fill="#4AC1C0"/>
<path d="M11.207 5.3567V5.70746L12.1696 6.94362C12.0125 7.434 12.7144 7.72687 12.9818 8.1253C13.0821 8.7519 13.8308 9.11628 14.1416 9.65093C14.8201 10.5363 15.1878 11.7044 16.1705 12.2867C17.0295 12.2969 17.23 11.1629 18.0756 11.1731C18.6572 10.6521 19.4694 10.206 19.9173 9.51471C20.1078 9.28655 20.4989 9.35466 20.7295 9.4466C20.92 10.6147 22.5143 10.71 22.638 11.936C23.1728 12.2969 23.7209 12.8554 24.1989 13.2539C24.6334 12.8214 24.747 13.8226 25.1481 13.4582C25.4924 12.7567 26.3046 13.2096 26.709 12.6307C27.0332 12.6511 27.6349 12.8588 27.6014 12.2901C27.6683 12.3003 27.7017 12.2527 27.7351 12.222C28.671 12.961 28.9351 13.9724 29.2258 14.9838C30.1316 15.3482 29.7071 16.3596 29.9077 16.9249C30.0648 17.5855 30.4558 18.144 30.5895 18.8047C30.4224 19.0737 30.1316 18.8455 29.9077 18.8694C29.8408 18.8115 29.8074 18.6957 29.7071 18.7366C29.4799 18.8455 29.5467 19.1793 29.6303 19.3564C29.6871 19.4721 29.8408 19.5607 29.7071 19.7003C29.3629 19.3019 29.1256 20.0306 28.7445 19.9761C28.6342 19.9285 28.6977 19.7378 28.5473 19.7718L28.4805 19.8365C28.3134 19.5777 28.2465 19.2031 28.2799 18.9409L27.8688 18.6651L27.9357 18.5867C27.6683 18.4505 27.9023 18.0861 27.7351 17.9022C27.4109 17.6843 27.0967 17.6162 26.9864 17.2075C26.9229 17.1871 26.8828 17.245 26.8527 17.2757C26.816 17.1156 26.7324 16.7512 26.5085 16.9896C25.5058 17.6843 24.8573 18.8013 23.7176 19.1384C23.5939 19.0941 23.6741 18.9 23.517 18.9341L23.4535 19.0022C23.2831 18.5833 22.6046 19.2644 22.5711 18.6582L22.3572 18.4437L22.4241 18.3756L22.2235 18.2394L22.287 18.1679C21.8659 17.9772 21.9327 17.3369 21.5417 17.2041C21.2843 16.7172 21.7757 16.5912 21.408 16.1553C21.1807 16.111 21.1172 16.4175 20.93 16.4447C20.7963 16.2949 20.7963 15.9884 20.5289 16.0225L20.5958 15.9543L20.1813 15.1949L20.1178 15.2596C20.0811 14.977 19.7936 15.0655 19.6399 14.977C18.2093 15.8147 17.2969 17.7047 15.9666 18.4437C15.4084 19.0022 14.6397 19.7173 13.9946 19.4211C13.6269 19.3087 13.2459 19.0907 12.9116 18.8626C12.9217 18.3075 12.3535 18.3756 12.3635 17.8137C12.0961 17.4834 11.7385 17.0543 11.6148 16.6456C11.1235 16.1553 10.9363 15.624 10.6656 14.977C10.3413 14.977 10.4516 14.5002 10.1876 14.4321C10.0539 14.0099 9.50909 13.8736 9.1715 14.0099C7.00564 15.4878 5.70545 17.5481 3.6599 19.0022C3.16857 19.0328 2.82431 19.6594 2.3664 19.5573C2.29955 19.8297 1.98537 20.0817 1.7514 19.9693C1.49738 19.8638 1.34697 19.639 1.41382 19.4245C1.85167 19.1384 1.64779 18.74 2.02882 18.379C1.95194 17.9022 1.59431 17.3778 1.6177 16.7853C1.31689 16.8432 1.36034 16.3868 1.07289 16.4481C1.16314 15.8318 2.04553 15.5729 1.6177 14.9123C1.23667 14.9668 0.915802 15.1745 0.524742 15.1983C0.524742 14.8782 0.237297 14.5139 0.457894 14.2993C0.548139 13.7068 0.0568075 13.4854 -0.0100403 13.0495C0.290775 12.8793 -0.0668609 12.5489 0.0568075 12.3582C0.277405 11.8032 1.02944 11.4217 1.35031 10.9688C3.11509 9.88931 4.79966 8.29898 6.31376 6.87552C7.65072 5.84027 9.26843 4.59048 10.9998 5.01275L11.197 5.3567H11.207Z" fill="#00705F"/>
<path d="M54.3606 9.03797L53.3947 10.7339C52.4989 10.4921 51.68 10.0971 50.9313 9.55559C50.186 9.01413 49.6345 8.40456 49.2735 7.72348C48.9994 8.47948 48.4546 9.181 47.6458 9.83143C46.8336 10.4819 45.9579 10.9518 45.012 11.2447L43.9391 9.47386C46.2921 8.57483 47.5455 7.09688 47.6992 5.04001H44.3502V3.16022H47.736V1.19189H50.6171V3.16363H54.0197V5.04342H50.6706C50.8244 6.9164 52.0544 8.24791 54.3606 9.03797ZM58.9631 15.1132C58.9631 16.2813 58.5219 17.2348 57.6395 17.9772C56.7203 18.757 55.4837 19.1452 53.9328 19.1452C52.3819 19.1452 51.1452 18.757 50.2261 17.9772C49.3437 17.2348 48.9025 16.2813 48.9025 15.1132C48.9025 13.9452 49.3437 12.9917 50.2261 12.2493C51.1452 11.4592 52.3819 11.0642 53.9328 11.0642C55.4837 11.0642 56.7203 11.4592 57.6395 12.2493C58.5219 12.9917 58.9631 13.9452 58.9631 15.1132ZM56.1521 15.1132C56.1521 14.5309 55.9483 14.0473 55.5438 13.6727C55.1394 13.2947 54.6013 13.1074 53.9328 13.1074C53.2643 13.1074 52.7229 13.2947 52.3117 13.6727C51.9006 14.0507 51.6934 14.5309 51.6934 15.1132C51.6934 15.6956 51.9006 16.1621 52.3117 16.5435C52.7229 16.9283 53.2643 17.119 53.9328 17.119C54.6013 17.119 55.1394 16.9283 55.5438 16.5435C55.9483 16.1621 56.1521 15.6819 56.1521 15.1132ZM59.0366 10.9518H56.1521V7.68602H53.1607V5.86072H56.1521V1.57671H59.0366V10.9552V10.9518Z" fill="#221E1F"/>
<path d="M77.4231 10.6419H61.0554V8.85407H67.807V6.7938H70.6715V8.85407H77.4231V10.6419ZM76.2232 6.08207L75.5781 7.85288C74.3347 7.70645 73.1014 7.32504 71.8714 6.70526C70.5946 6.06163 69.7356 5.36693 69.2944 4.62455C68.8766 5.38055 68.0845 6.05142 66.9213 6.64055C65.7582 7.22969 64.4479 7.63493 62.9907 7.85288L62.3088 6.06504C65.9387 5.37033 67.7536 3.90601 67.7536 1.66865V1.50519H70.7082V1.68908C70.7082 2.772 71.1795 3.68806 72.1221 4.44406C73.0646 5.19666 74.4317 5.74493 76.2232 6.08547V6.08207ZM75.5614 18.8524H64.8724C64.2741 18.8524 63.853 18.7298 63.609 18.488C63.365 18.2462 63.2413 17.8614 63.2413 17.337V14.3436H72.3928V13.6693C72.3928 13.4616 72.2858 13.3594 72.0719 13.3594H63.2447V11.5886H74.3113C75.0032 11.5886 75.3308 11.9224 75.2973 12.5932L75.0834 16.0429H66.1492V16.7546C66.1492 16.9726 66.2629 17.0816 66.4901 17.0816H75.5681V18.8524H75.5614Z" fill="#221E1F"/>
<path d="M88.4196 5.02298H86.9891C87.4069 5.65638 87.6141 6.40217 87.6141 7.26715C87.6141 8.47266 87.2264 9.42277 86.4509 10.1209C85.6755 10.819 84.6193 11.1698 83.2823 11.1698C81.9454 11.1698 80.8858 10.819 80.1037 10.1209C79.3216 9.42277 78.9305 8.46926 78.9305 7.26715C78.9305 6.40217 79.1445 5.65638 79.5756 5.02298H78.0348V3.10573H81.8317V0.990967H84.7162V3.10573H88.4229V5.02298H88.4196ZM92.5541 13.6523L92.25 18.6344H89.6195V14.8408C89.6195 14.4526 89.439 14.2585 89.0814 14.2585H80.9326V12.3412H91.391C92.2266 12.3412 92.6143 12.7805 92.5541 13.6557V13.6523ZM84.9602 7.26715C84.9602 6.69504 84.8065 6.2353 84.4956 5.89136C84.1848 5.54401 83.7804 5.37033 83.279 5.37033C82.7776 5.37033 82.3565 5.54401 82.0523 5.89136C81.7482 6.23871 81.5944 6.69844 81.5944 7.26715C81.5944 7.83585 81.7482 8.29899 82.0523 8.64293C82.3565 8.99029 82.7643 9.16396 83.279 9.16396C83.7937 9.16396 84.1848 8.99029 84.4956 8.64293C84.8065 8.29558 84.9602 7.83585 84.9602 7.26715ZM95.2548 7.72347H92.4806V11.5375H89.5995V1.5767H92.4806V5.80963H95.2548V7.72688V7.72347Z" fill="#221E1F"/>
<path d="M107.007 10.1686C106.064 10.5329 104.63 10.7509 102.708 10.8258V13.4514H99.8605V10.8428H95.8664V9.05498H102.026C104.105 9.05498 105.69 8.94601 106.789 8.72806L107.003 10.1686H107.007ZM105.843 4.75054C105.843 5.78579 105.472 6.61671 104.734 7.25011C103.945 7.9312 102.835 8.27174 101.405 8.27174C99.9742 8.27174 98.8745 7.9312 98.0724 7.25011C97.3203 6.61671 96.946 5.78579 96.946 4.75054C96.946 3.71529 97.3203 2.88437 98.0724 2.25097C98.8745 1.5835 99.9842 1.24637 101.405 1.24637C102.825 1.24637 103.948 1.5801 104.734 2.25097C105.472 2.88437 105.843 3.71529 105.843 4.75054ZM111.432 18.5799H100.168C99.6801 18.5799 99.3358 18.4812 99.1386 18.2871C98.9414 18.093 98.8445 17.7626 98.8445 17.3029V14.112H101.729V16.3187C101.729 16.6354 101.889 16.7921 102.214 16.7921H111.435V18.5799H111.432ZM103.123 4.75054C103.123 4.26357 102.969 3.87535 102.658 3.58248C102.347 3.28962 101.929 3.14318 101.405 3.14318C100.88 3.14318 100.462 3.28962 100.151 3.58248C99.8405 3.87535 99.6867 4.26357 99.6867 4.75054C99.6867 5.23751 99.8405 5.62573 100.151 5.9186C100.462 6.21146 100.88 6.3579 101.405 6.3579C101.929 6.3579 102.347 6.21146 102.658 5.9186C102.969 5.62573 103.123 5.23751 103.123 4.75054ZM110.697 14.6024H107.812V13.2879H104.623V11.5716H107.812V1.57669H110.697V14.6024Z" fill="#221E1F"/>
</g>
<defs>
<clipPath id="clip0_216_2407">
<rect width="111.429" height="20" fill="white"/>
</clipPath>
</defs>
</svg>
